# xmcd
#
# Track frame offsets:
#	150
#	9512
#	22405
#	34800
#	45215
#	57250
#	65760
#	79422
#	91460
#	103260
#	115047
#	126382
#	142240
#	154400
#
# Disc length: 2184 seconds
# Revision: 2
# Processed by: cddbd v1.5.2PL0 Copyright (c) Steve Scherf et al.
# Submitted via: dBpowerAMP V12.0
#
DISCID=cc08860e
DTITLE=Various Artist - The Greatest Hits Of Hickory Records, Vol. 2
DYEAR=1993
DGENRE=Country
TTITLE0=Roy Acuff - Freight Train Blues
TTITLE1=Roy Acuff - Roll In My Sweet Baby's Arms
TTITLE2=Wilma Lee and Stoney Cooper - Big Midnight Special
TTITLE3=Wilma Lee and Stoney Cooper - Cheated Too
TTITLE4=Ernie Ashworth - I Wish
TTITLE5=Ernie Ashworth - A New Heart
TTITLE6=Don Gibson and Sue Thompson - The Two Of Us Together
TTITLE7=Don Gibson - Bring Back Your Love To Me
TTITLE8=Don Gibson - Is This The Best I'm Gonna Feel
TTITLE9=Bob Gallion - Sweethearts Again
TTITLE10=Glenn Barber - Unexpected Goodbye
TTITLE11=Glenn Barber - She Cheats On Me
TTITLE12=Jim Chesnut - Show Me A Sign
TTITLE13=Bob Gallion - Ain't Got Time For Nothin'
EXTD=
EXTT0=
EXTT1=
EXTT2=
EXTT3=
EXTT4=
EXTT5=
EXTT6=
EXTT7=
EXTT8=
EXTT9=
EXTT10=
EXTT11=
EXTT12=
EXTT13=
PLAYORDER=
